<?xml version="1.0" encoding="utf-8"?>
<!-- Generator: Adobe Illustrator 26.4.1, SVG Export Plug-In . SVG Version: 6.00 Build 0)  -->
<svg version="1.1" xmlns="http://www.w3.org/2000/svg" xmlns:xlink="http://www.w3.org/1999/xlink" x="0px" y="0px"
	 viewBox="0 0 688.21 215.38" style="enable-background:new 0 0 688.21 215.38;" xml:space="preserve">
<style type="text/css">
	.st0{fill:url(#SVGID_1_);}
	.st1{fill:url(#SVGID_00000040537498339966506230000018228294374890385282_);}
	.st2{fill:url(#SVGID_00000183226535953340616980000004526116792132034462_);}
	.st3{fill:none;}
	.st4{fill:url(#SVGID_00000122695064038546842940000000305831931670599814_);}
	.st5{fill:url(#SVGID_00000084512676608280162080000009546397093607816342_);}
	.st6{fill:url(#SVGID_00000116918714274946636880000013263345743163176617_);}
	.st7{fill:url(#SVGID_00000000223783939676131080000014850987392914647992_);}
	.st8{fill:url(#SVGID_00000060724421690244176960000004792195083508623020_);}
	.st9{fill:url(#SVGID_00000182511877950882081620000012358524510263663499_);}
	.st10{fill:url(#SVGID_00000069378258163433245960000014912064240035687323_);}
	.st11{fill:#C1272D;}
</style>
<g id="レイヤー_6">
	<g id="レイヤー_17">
		<g>
			<linearGradient id="SVGID_1_" gradientUnits="userSpaceOnUse" x1="65.4013" y1="109.4352" x2="145.4569" y2="109.4352">
				<stop  offset="0" style="stop-color:#AA0060"/>
				<stop  offset="1" style="stop-color:#BB95F7"/>
			</linearGradient>
			<path class="st0" d="M108.68,131.19c13.5,0,24.6-10.2,24.6-25.8v-17.7h-72.9l1.2,43.5H108.68z"/>
			
				<linearGradient id="SVGID_00000057855835069458655120000005886277170372027300_" gradientUnits="userSpaceOnUse" x1="74.6283" y1="209.1864" x2="74.6283" y2="2.1845">
				<stop  offset="0" style="stop-color:#AA0060"/>
				<stop  offset="1" style="stop-color:#BB95F7"/>
			</linearGradient>
			<path style="fill:url(#SVGID_00000057855835069458655120000005886277170372027300_);" d="M45.38,2.18c-27.6,0-41.7,12-41.7,37.5
				v141.3c0,19.2,12.3,28.2,30.3,28.2h27.6v-78l-1.2-43.5v-38.7h55.2c20.1,0,30-14.7,30-26.7V2.18H45.38z"/>
		</g>
	</g>
	
		<linearGradient id="SVGID_00000120552368590764863950000001676349052498087047_" gradientUnits="userSpaceOnUse" x1="60.1789" y1="25.5846" x2="145.2793" y2="25.5846">
		<stop  offset="0.0115" style="stop-color:#AA0060"/>
		<stop  offset="1" style="stop-color:#BB95F7"/>
	</linearGradient>
	<path style="fill:url(#SVGID_00000120552368590764863950000001676349052498087047_);" d="M60.18,39.68v9.3h55.1
		c20.1,0,30-14.7,30-26.7V2.18h-43.4C74.28,2.18,60.18,14.18,60.18,39.68z"/>
</g>
<g id="レイヤー_20">
	<g>
		<path class="st3" d="M212.64,157.89c0,9.83,5.78,15.18,19.56,15.83c0.98,0.03,1.95,0.05,2.94,0.07c10.2,0,19.2-5.1,19.2-20.1
			v-12.3h-11.4C221.34,141.39,212.64,146.79,212.64,157.89z"/>
		<path class="st3" d="M235.14,173.79c-0.99-0.01-1.97-0.04-2.94-0.07C233.14,173.76,234.12,173.79,235.14,173.79z"/>
		
			<linearGradient id="SVGID_00000081606115594946575410000017446327983817068477_" gradientUnits="userSpaceOnUse" x1="208.8949" y1="46.0059" x2="208.8949" y2="105.8844">
			<stop  offset="0" style="stop-color:#AA0060"/>
			<stop  offset="1" style="stop-color:#BB95F7"/>
		</linearGradient>
		<path style="fill:url(#SVGID_00000081606115594946575410000017446327983817068477_);" d="M231.36,55.1
			c-18.23-12.8-38.13-8.59-41.45-7.82c-17.19,7.8-25.27,20.35-25.27,32.9v20.1h1.5c11.7-10.8,23.1-18,54-18c22.5,0,33,3.3,33,16.8
			C253.19,96.94,253.37,70.56,231.36,55.1z"/>
		
			<linearGradient id="SVGID_00000137846042560472926330000001155188579223923632_" gradientUnits="userSpaceOnUse" x1="254.3427" y1="139.8516" x2="164.6002" y2="139.8516">
			<stop  offset="0.1004" style="stop-color:#AA0060"/>
			<stop  offset="1" style="stop-color:#BB95F7"/>
		</linearGradient>
		<path style="fill:url(#SVGID_00000137846042560472926330000001155188579223923632_);" d="M164.85,144.56
			c2.83,15.87,29.56,28.06,67.35,29.16c-13.77-0.65-19.56-6-19.56-15.83c0-11.1,8.7-16.5,30.3-16.5h11.4l-1.2-35.4h-8.1
			c-39.73,0-64.72,8.16-77.07,24.3C164.47,136.58,164.27,141.3,164.85,144.56z"/>
		
			<linearGradient id="SVGID_00000179618609871813791670000012198441129784242321_" gradientUnits="userSpaceOnUse" x1="233.4923" y1="213.6864" x2="233.4923" y2="39.3847">
			<stop  offset="0" style="stop-color:#AA0060"/>
			<stop  offset="1" style="stop-color:#BB95F7"/>
		</linearGradient>
		<path style="fill:url(#SVGID_00000179618609871813791670000012198441129784242321_);" d="M233.04,39.38
			c-18.11,0-32.39,3.02-43.13,7.9c3.32-0.77,23.22-4.98,41.45,7.82c22.01,15.46,21.83,41.83,21.78,43.98v6.9l1.2,35.4v12.3
			c0,15-9,20.1-19.2,20.1c-1.02,0-2-0.02-2.94-0.07c-37.78-1.1-64.51-13.29-67.35-29.16c-0.58-3.26-0.39-7.98,3.12-14.27
			c-6.3,8.23-9.33,18.53-9.33,30.9c0,37.5,38.7,52.5,70.5,52.5c60,0,79.2-17.1,79.2-77.1v-25.5
			C308.34,62.48,278.64,39.38,233.04,39.38z"/>
	</g>
</g>
<g id="レイヤー_4">
	<g>
		
			<linearGradient id="SVGID_00000085238644874888650800000016667914414261649059_" gradientUnits="userSpaceOnUse" x1="320.3853" y1="22.5411" x2="409.383" y2="176.6897">
			<stop  offset="0" style="stop-color:#AA0060"/>
			<stop  offset="1" style="stop-color:#BB95F7"/>
		</linearGradient>
		<path style="fill:url(#SVGID_00000085238644874888650800000016667914414261649059_);" d="M385.22,192.33
			c3.53-0.5,5.69-4.01,6.89-6.02c8.2-13.74,18.51-34.74,20.56-38.93c-7.5-14.1-22.2-53.1-27.3-79.5c-2.1-10.5-13.8-23.7-32.4-23.7
			h-29.7c7.08,47.47,29.51,106.81,51.36,141.59C375.83,187.4,380.27,193.04,385.22,192.33z"/>
		
			<linearGradient id="SVGID_00000125594653781594066550000000286869685519910793_" gradientUnits="userSpaceOnUse" x1="434.4428" y1="211.5868" x2="434.4428" y2="44.185">
			<stop  offset="0" style="stop-color:#AA0060"/>
			<stop  offset="1" style="stop-color:#BB95F7"/>
		</linearGradient>
		<path style="fill:url(#SVGID_00000125594653781594066550000000286869685519910793_);" d="M471.16,44.18h-27.3
			c-6,36.9-20.7,83.7-31.2,103.2c-2.05,4.19-12.36,25.18-20.56,38.93c-1.2,2.01-3.36,5.52-6.89,6.02c-4.95,0.71-9.39-4.93-10.6-6.56
			c0.38,0.61,0.76,1.22,1.14,1.82c9.6,15,18.6,24,37.5,24h15.3c19.8-21.9,47.1-78,57.9-109.5c3.9-11.4,7.8-23.4,7.8-35.4
			C494.27,52.88,485.56,44.18,471.16,44.18z"/>
	</g>
</g>
<g id="レイヤー_5">
	<g>
		
			<linearGradient id="SVGID_00000158737158134012945360000001616077632400966547_" gradientUnits="userSpaceOnUse" x1="597.4618" y1="213.6864" x2="597.4618" y2="39.6845">
			<stop  offset="0" style="stop-color:#AA0060"/>
			<stop  offset="1" style="stop-color:#BB95F7"/>
		</linearGradient>
		<path style="fill:url(#SVGID_00000158737158134012945360000001616077632400966547_);" d="M599.56,39.68c45,0,85.5,34.2,85.5,85.2
			c0,54-32.7,88.8-89.7,88.8c-47.1,0-85.5-34.8-85.5-83.4C509.86,75.68,547.66,39.68,599.56,39.68z M595.96,84.68
			c-15.6,0-29.7,16.5-29.7,39c0,31.8,12.6,45.6,32.7,45.6c18,0,29.7-16.5,29.7-39.3C628.66,100.29,615.76,84.68,595.96,84.68z"/>
	</g>
	<g id="レイヤー_14">
		<g>
			
				<linearGradient id="SVGID_00000103962979395891887950000010080357153624498834_" gradientUnits="userSpaceOnUse" x1="568.0767" y1="65.0847" x2="568.0767" y2="192.0863">
				<stop  offset="0" style="stop-color:#AA0060"/>
				<stop  offset="1" style="stop-color:#BB95F7"/>
			</linearGradient>
			<path style="fill:url(#SVGID_00000103962979395891887950000010080357153624498834_);" d="M569.26,192.09
				c27.02,0,49.82-19.27,57.05-45.63c-4.26,13.86-14.1,22.84-27.37,22.84c-20.1,0-32.7-13.8-32.7-45.6c0-22.5,14.1-39,29.7-39
				c12.34,0,22.01,6.07,27.53,17.83c-9.32-22.07-30.07-37.43-54.21-37.43c-30.56,0-55.73,24.64-59.06,56.33
				c-0.22,2.8-0.35,5.64-0.35,8.55C510.53,164.4,536.86,192.09,569.26,192.09z"/>
			<path class="st11" d="M628.58,132.69c0.08-1.36,0.14-2.73,0.14-4.11c0-4.5-0.45-8.89-1.28-13.13c0.79,4.39,1.21,9.24,1.21,14.54
				C628.64,130.9,628.61,131.8,628.58,132.69z"/>
		</g>
	</g>
</g>
</svg>
